<svg width='20' height='20' viewBox='0 0 20 20' fill='none' xmlns='http://www.w3.org/2000/svg'>
    <defs>
<symbol id="icon-ic_baseline-error-outline" viewBox="0 0 32 32">
<path fill="#e74a3b" style="fill: var(--color1, #e74a3b)" d="M14.667 20h2.667v2.667h-2.667v-2.667zM14.667 9.333h2.667v8h-2.667v-8zM15.987 2.667c-7.36 0-13.32 5.973-13.32 13.333s5.96 13.333 13.32 13.333c7.373 0 13.347-5.973 13.347-13.333s-5.973-13.333-13.347-13.333zM16 26.667c-5.893 0-10.667-4.773-10.667-10.667s4.773-10.667 10.667-10.667c5.893 0 10.667 4.773 10.667 10.667s-4.773 10.667-10.667 10.667z"></path>
</symbol>
<symbol id="icon-Done" viewBox="0 0 32 32">
<path fill="#3cbc81" style="fill: var(--color2, #3cbc81)" d="M14.133 18.4l-2.9-2.9c-0.244-0.244-0.55-0.361-0.916-0.349s-0.673 0.138-0.917 0.383-0.367 0.556-0.367 0.933c0 0.378 0.122 0.689 0.367 0.933l3.8 3.8c0.244 0.244 0.556 0.367 0.933 0.367s0.689-0.122 0.933-0.367l7.567-7.567c0.244-0.244 0.361-0.55 0.351-0.917s-0.14-0.672-0.384-0.916-0.556-0.367-0.933-0.367c-0.378 0-0.689 0.122-0.933 0.367l-6.6 6.6zM16 29.333c-1.844 0-3.578-0.35-5.2-1.051s-3.033-1.649-4.233-2.849-2.15-2.611-2.849-4.233c-0.7-1.622-1.051-3.356-1.051-5.2s0.35-3.578 1.051-5.2c0.7-1.622 1.649-3.033 2.849-4.233s2.611-2.15 4.233-2.851c1.622-0.7 3.356-1.049 5.2-1.049s3.578 0.35 5.2 1.049c1.622 0.7 3.033 1.651 4.233 2.851s2.15 2.611 2.849 4.233c0.7 1.622 1.051 3.356 1.051 5.2s-0.35 3.578-1.051 5.2c-0.7 1.622-1.649 3.033-2.849 4.233s-2.611 2.15-4.233 2.849c-1.622 0.7-3.356 1.051-5.2 1.051zM16 26.667c2.956 0 5.472-1.039 7.551-3.116s3.116-4.595 3.116-7.551c0-2.956-1.039-5.472-3.116-7.551s-4.595-3.116-7.551-3.116c-2.956 0-5.472 1.039-7.549 3.116s-3.117 4.595-3.117 7.551c0 2.956 1.039 5.472 3.117 7.551s4.594 3.116 7.549 3.116z"></path>
</symbol>
 </defs>
  </svg>